
<svg id="Layer_2" data-name="Layer 2" xmlns="http://www.w3.org/2000/svg" viewBox="0 0 977.57 977.57">
  <defs>
    <style>
      .cls-1 {
        fill: #ffc13c;
        stroke-width: 0px;
      }
    </style>
  </defs>
  <g id="objects">
    <g>
      <path class="cls-1" d="M488.79,0C218.84,0,0,218.84,0,488.79s218.84,488.79,488.79,488.79,488.79-218.84,488.79-488.79S758.74,0,488.79,0ZM488.79,911.21c-233.3,0-422.43-189.13-422.43-422.43S255.49,66.36,488.79,66.36s422.43,189.13,422.43,422.43-189.13,422.43-422.43,422.43Z"/>
      <path class="cls-1" d="M506.49,223.44v201.08c-5.64-1.55-11.57-2.38-17.7-2.38s-12.06.83-17.7,2.38v-201.08c0-9.78,7.92-17.7,17.7-17.7,4.89,0,9.31,1.98,12.51,5.18,3.2,3.2,5.18,7.63,5.18,12.51Z"/>
      <path class="cls-1" d="M687.05,421.27c0,6.94-4.3,13.46-11.21,15.95l-120.79,44.37c-1.26-11.74-5.57-22.57-12.12-31.67l121.4-44.6c8.81-3.17,18.52,1.39,21.7,10.2.69,1.9,1.01,3.84,1.01,5.75Z"/>
      <circle class="cls-1" cx="488.79" cy="488.79" r="38.71"/>
      <g>
        <path class="cls-1" d="M488.79,146.85c6.91,0,12.53-5.62,12.53-12.53v-37.51c0-6.91-5.62-12.53-12.53-12.53s-12.53,5.62-12.53,12.53v37.51c0,6.91,5.62,12.53,12.53,12.53Z"/>
        <path class="cls-1" d="M135.44,476.46h-37.51c-6.91,0-12.53,5.62-12.53,12.53s5.62,12.53,12.53,12.53h37.51c6.91,0,12.53-5.62,12.53-12.53s-5.62-12.53-12.53-12.53Z"/>
        <path class="cls-1" d="M490.12,829.81c-6.91,0-12.53,5.62-12.53,12.53v37.51c0,6.91,5.62,12.53,12.53,12.53s12.53-5.62,12.53-12.53v-37.51c0-6.91-5.62-12.53-12.53-12.53Z"/>
        <path class="cls-1" d="M880.98,475.13h-37.51c-6.91,0-12.53,5.62-12.53,12.53s5.62,12.53,12.53,12.53h37.51c6.91,0,12.53-5.62,12.53-12.53s-5.62-12.53-12.53-12.53Z"/>
      </g>
    </g>
  </g>
</svg>